<?xml version="1.0" encoding="iso-8859-1"?>
<!-- Uploaded to: SVG Repo, www.svgrepo.com, Generator: SVG Repo Mixer Tools -->
<svg fill="#000000" height="25" width="25" version="1.1" id="Layer_1" xmlns="http://www.w3.org/2000/svg" xmlns:xlink="http://www.w3.org/1999/xlink" 
	 viewBox="0 0 512 512" xml:space="preserve">
<g>
	<g>
		<g>
			<path d="M453.878,190.531l-92.858-27.374c-10.264-3.026-24.572-13.423-30.622-22.248L275.67,61.057
				c-4.938-7.206-12.108-11.339-19.67-11.339s-14.732,4.133-19.67,11.339l-54.728,79.853c-6.05,8.826-20.359,19.223-30.622,22.249
				l-92.857,27.372c-8.378,2.471-14.523,8.011-16.86,15.204c-2.337,7.192-0.621,15.288,4.705,22.212l59.03,76.724
				c6.525,8.48,11.993,25.302,11.698,35.998l-2.661,96.77c-0.202,7.315,2.125,13.848,6.548,18.395
				c4.045,4.159,9.645,6.448,15.767,6.448c3.106,0,6.307-0.578,9.514-1.718l91.214-32.435c4.836-1.719,11.732-2.705,18.924-2.705
				s14.088,0.987,18.924,2.705l91.215,32.435c3.206,1.14,6.408,1.718,9.513,1.718c6.121,0,11.721-2.29,15.767-6.449
				c4.423-4.548,6.749-11.08,6.548-18.395l-2.661-96.77c-0.294-10.696,5.171-27.517,11.697-35.999l59.031-76.724
				c5.327-6.924,7.042-15.02,4.705-22.212C468.401,198.543,462.256,193.002,453.878,190.531z M453.185,218.063l-59.031,76.724
				c-8.84,11.489-15.452,31.839-15.053,46.328l2.661,96.77c0.08,2.903-0.617,5.262-1.963,6.644
				c-1.703,1.752-4.718,2.009-8.228,0.761l-91.215-32.435c-6.605-2.349-15.255-3.643-24.355-3.643c-9.1,0-17.75,1.294-24.355,3.643
				l-91.214,32.435c-3.508,1.247-6.526,0.991-8.23-0.76c-1.344-1.382-2.043-3.742-1.962-6.645l2.661-96.77
				c0.399-14.49-6.214-34.84-15.054-46.328l-59.03-76.724c-2.047-2.66-2.805-5.259-2.135-7.318c0.668-2.059,2.81-3.716,6.027-4.663
				l92.858-27.374c13.902-4.099,31.214-16.676,39.41-28.633l54.728-79.853c1.897-2.768,4.134-4.293,6.298-4.293
				c2.165,0,4.402,1.525,6.298,4.293l54.728,79.854c8.195,11.956,25.507,24.533,39.41,28.633l92.858,27.374
				c3.217,0.949,5.359,2.606,6.027,4.663C455.99,212.804,455.232,215.403,453.185,218.063z"/>
			<path d="M508.964,193.317c-6.495-19.994-22.43-35.062-43.722-41.338l-92.648-27.313c-2.029-0.744-7.808-4.932-9.137-6.619
				l-54.63-79.713c-12.547-18.308-31.801-28.81-52.826-28.81c-21.023,0-40.277,10.501-52.826,28.81l-54.606,79.675
				c-1.331,1.699-7.1,5.902-9.116,6.644L46.76,151.978c-21.291,6.276-37.228,21.342-43.724,41.336
				c-6.496,19.994-2.459,41.55,11.075,59.142L73.01,329.01c1.204,1.791,3.418,8.579,3.5,10.723l-2.655,96.6
				c-0.503,18.259,5.862,35.137,17.916,47.529c11.678,12.004,27.509,18.614,44.578,18.614c7.706,0,15.437-1.36,22.979-4.042
				l90.877-32.316c0.476-0.105,2.504-0.503,5.795-0.503c3.243,0,5.271,0.387,5.771,0.494l90.902,32.324
				c7.541,2.681,15.272,4.042,22.979,4.042c17.069,0,32.899-6.611,44.575-18.615c12.055-12.391,18.42-29.269,17.917-47.527
				l-2.655-96.554c0.08-2.158,2.277-8.947,3.471-10.735l58.928-76.59C511.424,234.867,515.459,213.31,508.964,193.317z
				 M485.041,242.572l-59.032,76.724c-0.045,0.059-0.09,0.118-0.133,0.178c-3.148,4.333-6.601,14.991-6.598,20.365
				c0,0.072,0.001,0.145,0.003,0.218l2.66,96.723c0.38,13.845-4.353,26.55-13.332,35.777c-8.599,8.84-20.303,13.708-32.957,13.708
				c-5.851,0-11.755-1.044-17.548-3.105l-91.215-32.436c-0.075-0.027-0.151-0.053-0.227-0.077
				c-1.916-0.618-5.958-1.243-10.661-1.243c-5.039,0-8.924,0.68-10.72,1.262c-0.071,0.024-0.144,0.049-0.214,0.073L153.9,483.163
				c-5.794,2.06-11.698,3.105-17.548,3.105c-12.654,0-24.358-4.868-32.958-13.708c-8.978-9.227-13.712-21.934-13.332-35.779
				l2.661-96.769c0.002-0.073,0.003-0.147,0.003-0.22c0.001-5.357-3.47-16.012-6.635-20.358c-0.042-0.058-0.085-0.116-0.129-0.173
				l-59.002-76.687c-10.225-13.289-13.324-29.417-8.506-44.248c4.819-14.831,16.806-26.056,32.891-30.797l92.858-27.374
				c0.07-0.021,0.142-0.042,0.211-0.066c5.096-1.655,14.154-8.249,17.31-12.6c0.042-0.058,0.083-0.117,0.124-0.176l54.701-79.813
				c9.479-13.831,23.859-21.764,39.454-21.764c15.595,0,29.975,7.932,39.454,21.762l54.728,79.854
				c0.042,0.062,0.084,0.122,0.129,0.183c3.148,4.334,12.219,10.912,17.33,12.569c0.068,0.023,0.138,0.043,0.206,0.064
				l92.811,27.359c16.083,4.741,28.071,15.965,32.888,30.797C498.366,213.156,495.265,229.284,485.041,242.572z"/>
		</g>
	</g>
</g>
</svg>